<mxfile host="app.diagrams.net" modified="2023-04-11T13:08:35.493Z" agent="Mozilla/5.0 (Windows NT 10.0; Win64; x64) AppleWebKit/537.36 (KHTML, like Gecko) Chrome/112.0.0.0 Safari/537.36" etag="o3oKDofFwdH0wBQwzGHH" version="21.1.5" type="device">
  <diagram name="Page-1" id="9f46799a-70d6-7492-0946-bef42562c5a5">
    <mxGraphModel dx="3012" dy="793" grid="1" gridSize="10" guides="1" tooltips="1" connect="1" arrows="1" fold="1" page="1" pageScale="1" pageWidth="1169" pageHeight="827" background="none" math="0" shadow="0">
      <root>
        <mxCell id="0" />
        <mxCell id="1" parent="0" />
        <mxCell id="QB2ts3C3EFWzG5ZFv6do-14" style="edgeStyle=orthogonalEdgeStyle;rounded=0;orthogonalLoop=1;jettySize=auto;html=1;exitX=0.5;exitY=1;exitDx=0;exitDy=0;entryX=0.5;entryY=0;entryDx=0;entryDy=0;fontSize=13;" edge="1" parent="1" source="QB2ts3C3EFWzG5ZFv6do-1" target="QB2ts3C3EFWzG5ZFv6do-2">
          <mxGeometry relative="1" as="geometry" />
        </mxCell>
        <mxCell id="QB2ts3C3EFWzG5ZFv6do-1" value="&lt;font face=&quot;Times New Roman&quot; style=&quot;font-size: 13px;&quot;&gt;START&lt;/font&gt;" style="ellipse;whiteSpace=wrap;html=1;fontSize=13;fillColor=#1ba1e2;fontColor=#ffffff;strokeColor=#006EAF;" vertex="1" parent="1">
          <mxGeometry x="120" y="20" width="120" height="80" as="geometry" />
        </mxCell>
        <mxCell id="QB2ts3C3EFWzG5ZFv6do-15" style="edgeStyle=orthogonalEdgeStyle;rounded=0;orthogonalLoop=1;jettySize=auto;html=1;exitX=0.5;exitY=1;exitDx=0;exitDy=0;entryX=0.5;entryY=0;entryDx=0;entryDy=0;fontSize=13;" edge="1" parent="1" source="QB2ts3C3EFWzG5ZFv6do-2" target="QB2ts3C3EFWzG5ZFv6do-3">
          <mxGeometry relative="1" as="geometry" />
        </mxCell>
        <mxCell id="QB2ts3C3EFWzG5ZFv6do-2" value="&lt;font style=&quot;font-size: 13px;&quot; face=&quot;Times New Roman&quot;&gt;Initials timer 0&lt;br style=&quot;font-size: 13px;&quot;&gt;Initials external inerrupt&lt;br style=&quot;font-size: 13px;&quot;&gt;Global variable&lt;br style=&quot;font-size: 13px;&quot;&gt;Pin config&lt;/font&gt;" style="shape=process;whiteSpace=wrap;html=1;backgroundOutline=1;fontSize=13;fillColor=#e1d5e7;strokeColor=#9673a6;" vertex="1" parent="1">
          <mxGeometry x="75" y="120" width="210" height="80" as="geometry" />
        </mxCell>
        <mxCell id="QB2ts3C3EFWzG5ZFv6do-28" style="edgeStyle=orthogonalEdgeStyle;rounded=0;orthogonalLoop=1;jettySize=auto;html=1;exitX=0.5;exitY=1;exitDx=0;exitDy=0;entryX=0.5;entryY=0;entryDx=0;entryDy=0;fontSize=13;" edge="1" parent="1" source="QB2ts3C3EFWzG5ZFv6do-3" target="QB2ts3C3EFWzG5ZFv6do-26">
          <mxGeometry relative="1" as="geometry" />
        </mxCell>
        <mxCell id="QB2ts3C3EFWzG5ZFv6do-3" value="&lt;font style=&quot;font-size: 13px;&quot;&gt;Operation code system = 0&lt;/font&gt;" style="rounded=0;whiteSpace=wrap;html=1;fontSize=13;fillColor=#dae8fc;strokeColor=#6c8ebf;" vertex="1" parent="1">
          <mxGeometry x="120" y="220" width="120" height="40" as="geometry" />
        </mxCell>
        <mxCell id="QB2ts3C3EFWzG5ZFv6do-17" style="edgeStyle=orthogonalEdgeStyle;rounded=0;orthogonalLoop=1;jettySize=auto;html=1;exitX=0.5;exitY=1;exitDx=0;exitDy=0;entryX=0.5;entryY=0;entryDx=0;entryDy=0;fontSize=13;" edge="1" parent="1" source="QB2ts3C3EFWzG5ZFv6do-5" target="QB2ts3C3EFWzG5ZFv6do-7">
          <mxGeometry relative="1" as="geometry" />
        </mxCell>
        <mxCell id="QB2ts3C3EFWzG5ZFv6do-5" value="&lt;font style=&quot;font-size: 13px;&quot;&gt;Scan key&lt;br style=&quot;font-size: 13px;&quot;&gt;inside&lt;/font&gt;" style="shape=process;whiteSpace=wrap;html=1;backgroundOutline=1;fontSize=13;fillColor=#e1d5e7;strokeColor=#9673a6;" vertex="1" parent="1">
          <mxGeometry x="120" y="425" width="120" height="40" as="geometry" />
        </mxCell>
        <mxCell id="QB2ts3C3EFWzG5ZFv6do-30" style="edgeStyle=orthogonalEdgeStyle;rounded=0;orthogonalLoop=1;jettySize=auto;html=1;exitX=0.5;exitY=1;exitDx=0;exitDy=0;entryX=0.5;entryY=0;entryDx=0;entryDy=0;fontSize=13;" edge="1" parent="1" source="QB2ts3C3EFWzG5ZFv6do-7" target="QB2ts3C3EFWzG5ZFv6do-29">
          <mxGeometry relative="1" as="geometry" />
        </mxCell>
        <mxCell id="QB2ts3C3EFWzG5ZFv6do-7" value="&lt;font style=&quot;font-size: 13px;&quot;&gt;Operation&lt;br style=&quot;font-size: 13px;&quot;&gt;User interface LCD&lt;/font&gt;" style="shape=process;whiteSpace=wrap;html=1;backgroundOutline=1;fontSize=13;fillColor=#e1d5e7;strokeColor=#9673a6;" vertex="1" parent="1">
          <mxGeometry x="120" y="485" width="120" height="60" as="geometry" />
        </mxCell>
        <mxCell id="QB2ts3C3EFWzG5ZFv6do-19" style="edgeStyle=orthogonalEdgeStyle;rounded=0;orthogonalLoop=1;jettySize=auto;html=1;exitX=0.5;exitY=1;exitDx=0;exitDy=0;entryX=0.5;entryY=0;entryDx=0;entryDy=0;fontSize=13;" edge="1" parent="1" source="QB2ts3C3EFWzG5ZFv6do-8" target="QB2ts3C3EFWzG5ZFv6do-9">
          <mxGeometry relative="1" as="geometry" />
        </mxCell>
        <mxCell id="QB2ts3C3EFWzG5ZFv6do-8" value="Scan key&lt;br style=&quot;font-size: 13px;&quot;&gt;outside" style="shape=process;whiteSpace=wrap;html=1;backgroundOutline=1;fontSize=13;fillColor=#e1d5e7;strokeColor=#9673a6;" vertex="1" parent="1">
          <mxGeometry x="310" y="70" width="120" height="40" as="geometry" />
        </mxCell>
        <mxCell id="QB2ts3C3EFWzG5ZFv6do-20" style="edgeStyle=orthogonalEdgeStyle;rounded=0;orthogonalLoop=1;jettySize=auto;html=1;exitX=1;exitY=0.5;exitDx=0;exitDy=0;entryX=0;entryY=0.5;entryDx=0;entryDy=0;fontSize=13;" edge="1" parent="1" source="QB2ts3C3EFWzG5ZFv6do-9" target="QB2ts3C3EFWzG5ZFv6do-10">
          <mxGeometry relative="1" as="geometry" />
        </mxCell>
        <mxCell id="QB2ts3C3EFWzG5ZFv6do-21" style="edgeStyle=orthogonalEdgeStyle;rounded=0;orthogonalLoop=1;jettySize=auto;html=1;exitX=0.5;exitY=1;exitDx=0;exitDy=0;entryX=0.5;entryY=0;entryDx=0;entryDy=0;fontSize=13;" edge="1" parent="1" source="QB2ts3C3EFWzG5ZFv6do-9" target="QB2ts3C3EFWzG5ZFv6do-11">
          <mxGeometry relative="1" as="geometry" />
        </mxCell>
        <mxCell id="QB2ts3C3EFWzG5ZFv6do-9" value="key = &#39;#&#39;" style="rhombus;whiteSpace=wrap;html=1;fontSize=13;fillColor=#fff2cc;strokeColor=#d6b656;" vertex="1" parent="1">
          <mxGeometry x="330" y="130" width="80" height="80" as="geometry" />
        </mxCell>
        <mxCell id="QB2ts3C3EFWzG5ZFv6do-36" style="edgeStyle=orthogonalEdgeStyle;rounded=0;orthogonalLoop=1;jettySize=auto;html=1;exitX=0.5;exitY=1;exitDx=0;exitDy=0;entryX=0.5;entryY=0;entryDx=0;entryDy=0;fontSize=13;" edge="1" parent="1" source="QB2ts3C3EFWzG5ZFv6do-10" target="QB2ts3C3EFWzG5ZFv6do-35">
          <mxGeometry relative="1" as="geometry" />
        </mxCell>
        <mxCell id="QB2ts3C3EFWzG5ZFv6do-10" value="Normal request state&lt;br style=&quot;font-size: 13px;&quot;&gt;Remain state = 3" style="shape=process;whiteSpace=wrap;html=1;backgroundOutline=1;fontSize=13;fillColor=#e1d5e7;strokeColor=#9673a6;" vertex="1" parent="1">
          <mxGeometry x="450" y="140" width="170" height="60" as="geometry" />
        </mxCell>
        <mxCell id="QB2ts3C3EFWzG5ZFv6do-22" style="edgeStyle=orthogonalEdgeStyle;rounded=0;orthogonalLoop=1;jettySize=auto;html=1;exitX=1;exitY=0.5;exitDx=0;exitDy=0;entryX=0;entryY=0.5;entryDx=0;entryDy=0;fontSize=13;" edge="1" parent="1" source="QB2ts3C3EFWzG5ZFv6do-11" target="QB2ts3C3EFWzG5ZFv6do-12">
          <mxGeometry relative="1" as="geometry" />
        </mxCell>
        <mxCell id="QB2ts3C3EFWzG5ZFv6do-11" value="code = codeInit" style="rhombus;whiteSpace=wrap;html=1;fontSize=13;fillColor=#fff2cc;strokeColor=#d6b656;" vertex="1" parent="1">
          <mxGeometry x="315" y="345" width="110" height="80" as="geometry" />
        </mxCell>
        <mxCell id="QB2ts3C3EFWzG5ZFv6do-23" style="edgeStyle=orthogonalEdgeStyle;rounded=0;orthogonalLoop=1;jettySize=auto;html=1;exitX=0.5;exitY=1;exitDx=0;exitDy=0;entryX=0.5;entryY=0;entryDx=0;entryDy=0;fontSize=13;" edge="1" parent="1" source="QB2ts3C3EFWzG5ZFv6do-12" target="QB2ts3C3EFWzG5ZFv6do-13">
          <mxGeometry relative="1" as="geometry" />
        </mxCell>
        <mxCell id="QB2ts3C3EFWzG5ZFv6do-12" value="Emergency request state&lt;br style=&quot;font-size: 13px;&quot;&gt;Remain state = 30" style="shape=process;whiteSpace=wrap;html=1;backgroundOutline=1;fontSize=13;fillColor=#e1d5e7;strokeColor=#9673a6;" vertex="1" parent="1">
          <mxGeometry x="450" y="355" width="170" height="60" as="geometry" />
        </mxCell>
        <mxCell id="QB2ts3C3EFWzG5ZFv6do-41" style="edgeStyle=orthogonalEdgeStyle;rounded=0;orthogonalLoop=1;jettySize=auto;html=1;exitX=0.5;exitY=1;exitDx=0;exitDy=0;entryX=0.5;entryY=0;entryDx=0;entryDy=0;fontSize=13;" edge="1" parent="1" source="QB2ts3C3EFWzG5ZFv6do-13" target="QB2ts3C3EFWzG5ZFv6do-39">
          <mxGeometry relative="1" as="geometry" />
        </mxCell>
        <mxCell id="QB2ts3C3EFWzG5ZFv6do-57" style="edgeStyle=orthogonalEdgeStyle;rounded=0;orthogonalLoop=1;jettySize=auto;html=1;exitX=1;exitY=0.5;exitDx=0;exitDy=0;entryX=0;entryY=0.5;entryDx=0;entryDy=0;fontSize=13;" edge="1" parent="1" source="QB2ts3C3EFWzG5ZFv6do-13" target="QB2ts3C3EFWzG5ZFv6do-56">
          <mxGeometry relative="1" as="geometry" />
        </mxCell>
        <mxCell id="QB2ts3C3EFWzG5ZFv6do-13" value="Remain state = 0" style="rhombus;whiteSpace=wrap;html=1;fontSize=13;fillColor=#fff2cc;strokeColor=#d6b656;" vertex="1" parent="1">
          <mxGeometry x="470" y="435" width="130" height="80" as="geometry" />
        </mxCell>
        <mxCell id="QB2ts3C3EFWzG5ZFv6do-24" value="True" style="text;html=1;strokeColor=none;fillColor=none;align=center;verticalAlign=middle;whiteSpace=wrap;rounded=0;fontSize=13;" vertex="1" parent="1">
          <mxGeometry x="395" y="145" width="60" height="30" as="geometry" />
        </mxCell>
        <mxCell id="QB2ts3C3EFWzG5ZFv6do-25" value="False" style="text;html=1;strokeColor=none;fillColor=none;align=center;verticalAlign=middle;whiteSpace=wrap;rounded=0;fontSize=13;" vertex="1" parent="1">
          <mxGeometry x="315" y="200" width="60" height="30" as="geometry" />
        </mxCell>
        <mxCell id="QB2ts3C3EFWzG5ZFv6do-27" style="edgeStyle=orthogonalEdgeStyle;rounded=0;orthogonalLoop=1;jettySize=auto;html=1;exitX=0.5;exitY=1;exitDx=0;exitDy=0;entryX=0.5;entryY=0;entryDx=0;entryDy=0;fontSize=13;" edge="1" parent="1" source="QB2ts3C3EFWzG5ZFv6do-26" target="QB2ts3C3EFWzG5ZFv6do-5">
          <mxGeometry relative="1" as="geometry" />
        </mxCell>
        <mxCell id="QB2ts3C3EFWzG5ZFv6do-68" style="edgeStyle=orthogonalEdgeStyle;rounded=0;orthogonalLoop=1;jettySize=auto;html=1;exitX=0;exitY=0.5;exitDx=0;exitDy=0;entryX=1;entryY=0.5;entryDx=0;entryDy=0;" edge="1" parent="1" source="QB2ts3C3EFWzG5ZFv6do-26" target="QB2ts3C3EFWzG5ZFv6do-32">
          <mxGeometry relative="1" as="geometry" />
        </mxCell>
        <mxCell id="QB2ts3C3EFWzG5ZFv6do-26" value="&lt;font style=&quot;font-size: 13px;&quot;&gt;flag overflow timer 0&lt;/font&gt;" style="rhombus;whiteSpace=wrap;html=1;fontSize=13;fillColor=#fff2cc;strokeColor=#d6b656;" vertex="1" parent="1">
          <mxGeometry x="110" y="320" width="140" height="80" as="geometry" />
        </mxCell>
        <mxCell id="QB2ts3C3EFWzG5ZFv6do-29" value="A" style="ellipse;whiteSpace=wrap;html=1;aspect=fixed;fillColor=#f8cecc;strokeColor=#b85450;fontSize=13;" vertex="1" parent="1">
          <mxGeometry x="155" y="575" width="50" height="50" as="geometry" />
        </mxCell>
        <mxCell id="QB2ts3C3EFWzG5ZFv6do-67" style="edgeStyle=orthogonalEdgeStyle;rounded=0;orthogonalLoop=1;jettySize=auto;html=1;exitX=0.5;exitY=1;exitDx=0;exitDy=0;entryX=0.5;entryY=0;entryDx=0;entryDy=0;" edge="1" parent="1" source="QB2ts3C3EFWzG5ZFv6do-31" target="QB2ts3C3EFWzG5ZFv6do-8">
          <mxGeometry relative="1" as="geometry" />
        </mxCell>
        <mxCell id="QB2ts3C3EFWzG5ZFv6do-31" value="A" style="ellipse;whiteSpace=wrap;html=1;aspect=fixed;fillColor=#f8cecc;strokeColor=#b85450;fontSize=13;" vertex="1" parent="1">
          <mxGeometry x="345" y="10" width="50" height="50" as="geometry" />
        </mxCell>
        <mxCell id="QB2ts3C3EFWzG5ZFv6do-69" style="edgeStyle=orthogonalEdgeStyle;rounded=0;orthogonalLoop=1;jettySize=auto;html=1;exitX=0.5;exitY=1;exitDx=0;exitDy=0;" edge="1" parent="1" source="QB2ts3C3EFWzG5ZFv6do-32">
          <mxGeometry relative="1" as="geometry">
            <mxPoint x="170" y="410" as="targetPoint" />
            <Array as="points">
              <mxPoint x="40" y="410" />
            </Array>
          </mxGeometry>
        </mxCell>
        <mxCell id="QB2ts3C3EFWzG5ZFv6do-32" value="Remain state - 1" style="rounded=0;whiteSpace=wrap;html=1;fontSize=13;fillColor=#dae8fc;strokeColor=#6c8ebf;" vertex="1" parent="1">
          <mxGeometry x="-25" y="330" width="100" height="60" as="geometry" />
        </mxCell>
        <mxCell id="QB2ts3C3EFWzG5ZFv6do-48" style="edgeStyle=orthogonalEdgeStyle;rounded=0;orthogonalLoop=1;jettySize=auto;html=1;exitX=0.5;exitY=1;exitDx=0;exitDy=0;fontSize=13;" edge="1" parent="1" source="QB2ts3C3EFWzG5ZFv6do-35">
          <mxGeometry relative="1" as="geometry">
            <mxPoint x="590" y="320.0000000000001" as="targetPoint" />
          </mxGeometry>
        </mxCell>
        <mxCell id="QB2ts3C3EFWzG5ZFv6do-55" style="edgeStyle=orthogonalEdgeStyle;rounded=0;orthogonalLoop=1;jettySize=auto;html=1;exitX=1;exitY=0.5;exitDx=0;exitDy=0;entryX=0;entryY=0.5;entryDx=0;entryDy=0;fontSize=13;" edge="1" parent="1" source="QB2ts3C3EFWzG5ZFv6do-35" target="QB2ts3C3EFWzG5ZFv6do-52">
          <mxGeometry relative="1" as="geometry" />
        </mxCell>
        <mxCell id="QB2ts3C3EFWzG5ZFv6do-35" value="Remain state = 0" style="rhombus;whiteSpace=wrap;html=1;fontSize=13;fillColor=#fff2cc;strokeColor=#d6b656;" vertex="1" parent="1">
          <mxGeometry x="470" y="220" width="130" height="80" as="geometry" />
        </mxCell>
        <mxCell id="QB2ts3C3EFWzG5ZFv6do-42" style="edgeStyle=orthogonalEdgeStyle;rounded=0;orthogonalLoop=1;jettySize=auto;html=1;exitX=0.5;exitY=1;exitDx=0;exitDy=0;entryX=0.5;entryY=0;entryDx=0;entryDy=0;fontSize=13;" edge="1" parent="1" source="QB2ts3C3EFWzG5ZFv6do-39" target="QB2ts3C3EFWzG5ZFv6do-40">
          <mxGeometry relative="1" as="geometry" />
        </mxCell>
        <mxCell id="QB2ts3C3EFWzG5ZFv6do-39" value="Door fail&amp;nbsp;&lt;br style=&quot;font-size: 13px;&quot;&gt;Remain state = 5" style="shape=process;whiteSpace=wrap;html=1;backgroundOutline=1;fontSize=13;fillColor=#e1d5e7;strokeColor=#9673a6;" vertex="1" parent="1">
          <mxGeometry x="475" y="530" width="120" height="60" as="geometry" />
        </mxCell>
        <mxCell id="QB2ts3C3EFWzG5ZFv6do-59" style="edgeStyle=orthogonalEdgeStyle;rounded=0;orthogonalLoop=1;jettySize=auto;html=1;exitX=0.5;exitY=1;exitDx=0;exitDy=0;entryX=0.5;entryY=0;entryDx=0;entryDy=0;fontSize=13;" edge="1" parent="1" source="QB2ts3C3EFWzG5ZFv6do-40" target="QB2ts3C3EFWzG5ZFv6do-58">
          <mxGeometry relative="1" as="geometry" />
        </mxCell>
        <mxCell id="QB2ts3C3EFWzG5ZFv6do-61" style="edgeStyle=orthogonalEdgeStyle;rounded=0;orthogonalLoop=1;jettySize=auto;html=1;exitX=1;exitY=0.5;exitDx=0;exitDy=0;entryX=0;entryY=0.5;entryDx=0;entryDy=0;fontSize=13;" edge="1" parent="1" source="QB2ts3C3EFWzG5ZFv6do-40" target="QB2ts3C3EFWzG5ZFv6do-60">
          <mxGeometry relative="1" as="geometry" />
        </mxCell>
        <mxCell id="QB2ts3C3EFWzG5ZFv6do-40" value="Remain state = 0" style="rhombus;whiteSpace=wrap;html=1;fontSize=13;fillColor=#fff2cc;strokeColor=#d6b656;" vertex="1" parent="1">
          <mxGeometry x="470" y="610" width="130" height="80" as="geometry" />
        </mxCell>
        <mxCell id="QB2ts3C3EFWzG5ZFv6do-43" value="True" style="text;html=1;strokeColor=none;fillColor=none;align=center;verticalAlign=middle;whiteSpace=wrap;rounded=0;fontSize=13;" vertex="1" parent="1">
          <mxGeometry x="395" y="355" width="60" height="30" as="geometry" />
        </mxCell>
        <mxCell id="QB2ts3C3EFWzG5ZFv6do-44" value="True" style="text;html=1;strokeColor=none;fillColor=none;align=center;verticalAlign=middle;whiteSpace=wrap;rounded=0;fontSize=13;" vertex="1" parent="1">
          <mxGeometry x="530" y="500" width="60" height="30" as="geometry" />
        </mxCell>
        <mxCell id="QB2ts3C3EFWzG5ZFv6do-46" style="edgeStyle=orthogonalEdgeStyle;rounded=0;orthogonalLoop=1;jettySize=auto;html=1;exitX=1;exitY=0.5;exitDx=0;exitDy=0;fontSize=13;" edge="1" parent="1" source="QB2ts3C3EFWzG5ZFv6do-45">
          <mxGeometry relative="1" as="geometry">
            <mxPoint x="170" y="270" as="targetPoint" />
          </mxGeometry>
        </mxCell>
        <mxCell id="QB2ts3C3EFWzG5ZFv6do-45" value="B" style="ellipse;whiteSpace=wrap;html=1;aspect=fixed;fillColor=#f8cecc;strokeColor=#b85450;fontSize=13;" vertex="1" parent="1">
          <mxGeometry x="-10" y="245" width="50" height="50" as="geometry" />
        </mxCell>
        <mxCell id="QB2ts3C3EFWzG5ZFv6do-47" value="B" style="ellipse;whiteSpace=wrap;html=1;aspect=fixed;fillColor=#f8cecc;strokeColor=#b85450;fontSize=13;" vertex="1" parent="1">
          <mxGeometry x="590" y="295" width="50" height="50" as="geometry" />
        </mxCell>
        <mxCell id="QB2ts3C3EFWzG5ZFv6do-49" value="C" style="ellipse;whiteSpace=wrap;html=1;aspect=fixed;fillColor=#f8cecc;strokeColor=#b85450;fontSize=13;" vertex="1" parent="1">
          <mxGeometry x="-10" y="190" width="50" height="50" as="geometry" />
        </mxCell>
        <mxCell id="QB2ts3C3EFWzG5ZFv6do-51" style="edgeStyle=orthogonalEdgeStyle;rounded=0;orthogonalLoop=1;jettySize=auto;html=1;exitX=1;exitY=0.5;exitDx=0;exitDy=0;fontSize=13;" edge="1" parent="1">
          <mxGeometry relative="1" as="geometry">
            <mxPoint x="170" y="214.44" as="targetPoint" />
            <mxPoint x="40" y="214.44" as="sourcePoint" />
          </mxGeometry>
        </mxCell>
        <mxCell id="QB2ts3C3EFWzG5ZFv6do-52" value="C" style="ellipse;whiteSpace=wrap;html=1;aspect=fixed;fillColor=#f8cecc;strokeColor=#b85450;fontSize=13;" vertex="1" parent="1">
          <mxGeometry x="640" y="235" width="50" height="50" as="geometry" />
        </mxCell>
        <mxCell id="QB2ts3C3EFWzG5ZFv6do-56" value="B" style="ellipse;whiteSpace=wrap;html=1;aspect=fixed;fillColor=#f8cecc;strokeColor=#b85450;fontSize=13;" vertex="1" parent="1">
          <mxGeometry x="640" y="450" width="50" height="50" as="geometry" />
        </mxCell>
        <mxCell id="QB2ts3C3EFWzG5ZFv6do-58" value="B" style="ellipse;whiteSpace=wrap;html=1;aspect=fixed;fillColor=#f8cecc;strokeColor=#b85450;fontSize=13;" vertex="1" parent="1">
          <mxGeometry x="510" y="700" width="50" height="50" as="geometry" />
        </mxCell>
        <mxCell id="QB2ts3C3EFWzG5ZFv6do-60" value="C" style="ellipse;whiteSpace=wrap;html=1;aspect=fixed;fillColor=#f8cecc;strokeColor=#b85450;fontSize=13;" vertex="1" parent="1">
          <mxGeometry x="640" y="625" width="50" height="50" as="geometry" />
        </mxCell>
        <mxCell id="QB2ts3C3EFWzG5ZFv6do-62" value="True" style="text;html=1;strokeColor=none;fillColor=none;align=center;verticalAlign=middle;whiteSpace=wrap;rounded=0;fontSize=13;" vertex="1" parent="1">
          <mxGeometry x="580" y="235" width="60" height="30" as="geometry" />
        </mxCell>
        <mxCell id="QB2ts3C3EFWzG5ZFv6do-63" value="True" style="text;html=1;strokeColor=none;fillColor=none;align=center;verticalAlign=middle;whiteSpace=wrap;rounded=0;fontSize=13;" vertex="1" parent="1">
          <mxGeometry x="580" y="625" width="60" height="30" as="geometry" />
        </mxCell>
        <mxCell id="QB2ts3C3EFWzG5ZFv6do-64" value="False" style="text;html=1;strokeColor=none;fillColor=none;align=center;verticalAlign=middle;whiteSpace=wrap;rounded=0;fontSize=13;" vertex="1" parent="1">
          <mxGeometry x="475" y="300" width="60" height="30" as="geometry" />
        </mxCell>
        <mxCell id="QB2ts3C3EFWzG5ZFv6do-65" value="False" style="text;html=1;strokeColor=none;fillColor=none;align=center;verticalAlign=middle;whiteSpace=wrap;rounded=0;fontSize=13;" vertex="1" parent="1">
          <mxGeometry x="580" y="445" width="60" height="30" as="geometry" />
        </mxCell>
        <mxCell id="QB2ts3C3EFWzG5ZFv6do-66" value="False" style="text;html=1;strokeColor=none;fillColor=none;align=center;verticalAlign=middle;whiteSpace=wrap;rounded=0;fontSize=13;" vertex="1" parent="1">
          <mxGeometry x="535" y="680" width="60" height="30" as="geometry" />
        </mxCell>
        <mxCell id="QB2ts3C3EFWzG5ZFv6do-70" value="True" style="text;html=1;strokeColor=none;fillColor=none;align=center;verticalAlign=middle;whiteSpace=wrap;rounded=0;fontSize=13;" vertex="1" parent="1">
          <mxGeometry x="70" y="325" width="60" height="30" as="geometry" />
        </mxCell>
        <mxCell id="QB2ts3C3EFWzG5ZFv6do-71" value="False" style="text;html=1;strokeColor=none;fillColor=none;align=center;verticalAlign=middle;whiteSpace=wrap;rounded=0;fontSize=13;" vertex="1" parent="1">
          <mxGeometry x="75" y="384" width="60" height="30" as="geometry" />
        </mxCell>
      </root>
    </mxGraphModel>
  </diagram>
</mxfile>
